<?xml version="1.0" standalone="no"?>
<!DOCTYPE svg PUBLIC "-//W3C//DTD SVG 20010904//EN"
 "http://www.w3.org/TR/2001/REC-SVG-20010904/DTD/svg10.dtd">
<svg version="1.0" xmlns="http://www.w3.org/2000/svg"
 width="260.000000pt" height="260.000000pt" viewBox="0 0 260.000000 260.000000"
 preserveAspectRatio="xMidYMid meet">
<metadata>
Created by potrace 1.14, written by Peter Selinger 2001-2017
</metadata>
<g transform="translate(0.000000,260.000000) scale(0.100000,-0.100000)"
fill="#000000" stroke="none">
<path d="M820 2558 c-6 -24 -15 -56 -20 -73 -17 -53 -67 -287 -86 -395 -24
-141 -25 -378 -1 -473 21 -86 72 -195 127 -278 24 -35 110 -131 191 -214 l147
-150 11 -309 c6 -170 11 -324 11 -343 0 -30 -6 -37 -62 -73 -35 -22 -112 -61
-173 -86 -141 -60 -205 -92 -205 -104 0 -5 10 -16 22 -24 20 -14 84 -16 498
-16 414 0 478 2 498 16 12 8 22 19 22 24 0 12 -94 60 -195 99 -92 35 -233 115
-242 136 -3 8 0 165 7 347 l12 333 148 151 c203 207 279 329 321 519 23 103
16 345 -15 510 -26 133 -75 342 -97 413 l-11 32 -448 0 -449 0 -11 -42z m899
-175 c67 -283 75 -338 76 -543 0 -177 -1 -188 -28 -264 -54 -154 -138 -268
-336 -457 l-121 -116 0 -142 c0 -77 -5 -242 -11 -366 -8 -176 -8 -229 1 -241
19 -22 172 -112 238 -139 l57 -24 -315 0 -315 0 49 20 c73 29 235 129 247 152
8 13 8 79 0 218 -6 109 -11 270 -11 356 l0 158 -149 150 c-291 292 -351 426
-338 754 6 162 36 337 94 553 l26 98 398 0 397 0 41 -167z"/>
</g>
</svg>
